<svg xmlns="http://www.w3.org/2000/svg" version="1.1" xmlns:xlink="http://www.w3.org/1999/xlink" xmlns:svgjs="http://svgjs.com/svgjs" width="56" height="56"><svg width="56" height="56" viewBox="0 0 56 56" fill="none" xmlns="http://www.w3.org/2000/svg">
<path fill-rule="evenodd" clip-rule="evenodd" d="M27.948 5.80309C40.1831 5.80309 50.1026 15.7408 50.1026 27.9997C50.1026 40.2586 40.1831 50.1962 27.948 50.1962C15.7117 50.1962 5.79347 40.2586 5.79347 27.9997C5.79347 15.7408 15.7117 5.80309 27.948 5.80309ZM27.948 0C43.3821 0 55.8947 12.5363 55.8947 27.9997C55.8947 43.4644 43.3821 56 27.948 56C12.5126 56 0 43.4644 0 27.9997C0 12.537 12.5126 0 27.948 0Z" fill="#039AD4"></path>
<path fill-rule="evenodd" clip-rule="evenodd" d="M27.366 17.5C30.6922 17.5 33.635 19.1429 35.4295 21.6651L33.8691 23.1056C32.4727 20.9956 30.0814 19.6046 27.366 19.6046C23.0601 19.6046 19.5685 23.1016 19.5685 27.417C19.5685 31.7304 23.0601 35.2274 27.366 35.2274C31.0176 35.2274 34.0831 32.7112 34.93 29.3145H28.3449V27.3395H35.1614V27.3368L37.2627 27.3322L37.2633 27.4163C37.2633 32.8923 32.8315 37.3333 27.366 37.3333C21.8992 37.3333 17.4673 32.893 17.4673 27.4163C17.4673 21.939 21.8985 17.5 27.366 17.5Z" fill="#039AD4"></path>
<path fill-rule="evenodd" clip-rule="evenodd" d="M42.5032 18.6893C43.5151 18.6893 44.3349 19.5928 44.3349 20.7067C44.3349 21.822 43.5151 22.7255 42.5032 22.7255C41.4925 22.7255 40.672 21.822 40.672 20.7067C40.672 19.5928 41.4925 18.6893 42.5032 18.6893ZM42.5032 23.9397C43.5151 23.9397 44.3349 24.844 44.3349 25.9586C44.3349 27.0738 43.5151 27.9767 42.5032 27.9767C41.4925 27.9767 40.672 27.0738 40.672 25.9586C40.672 24.844 41.4925 23.9397 42.5032 23.9397ZM44.1761 23.333C44.925 23.9134 45.4147 24.873 45.4147 25.9586C45.4147 27.7304 44.1114 29.1667 42.5032 29.1667C40.8955 29.1667 39.5923 27.7304 39.5923 25.9586C39.5923 24.8723 40.0819 23.9128 40.8302 23.333C40.0819 22.7539 39.5923 21.7929 39.5923 20.7074C39.5923 18.9356 40.8955 17.5 42.5032 17.5C44.1114 17.5 45.4147 18.9363 45.4147 20.7074C45.4147 21.7929 44.925 22.7532 44.1761 23.333Z" fill="#039AD4"></path>
</svg><style>@media (prefers-color-scheme: light) { :root { filter: none; } }
</style></svg>