<svg width="32" height="32" fill="none" xmlns="http://www.w3.org/2000/svg">
  <path
    d="M5.921 18.512A1.876 1.876 0 0 0 6.875 22c.815 0 1.51-.523 1.768-1.25H13.5c1.034 0 1.875.841 1.875 1.875A1.877 1.877 0 0 1 13.5 24.5H6a3.129 3.129 0 0 0-3.125 3.125A3.129 3.129 0 0 0 6 30.75h6.25a.625.625 0 1 0 0-1.25H6a1.877 1.877 0 0 1-1.875-1.875c0-1.034.841-1.875 1.875-1.875h7.5a3.129 3.129 0 0 0 3.125-3.125A3.129 3.129 0 0 0 13.5 19.5H8.643a1.884 1.884 0 0 0-.815-.988l4.774-7.833a6.845 6.845 0 0 0 1.148-3.804A6.883 6.883 0 0 0 6.875 0 6.883 6.883 0 0 0 0 6.875c0 1.36.397 2.675 1.148 3.804l4.774 7.833Zm.954 2.238a.626.626 0 1 1 .001-1.251.626.626 0 0 1-.001 1.251Zm0-19.5A5.631 5.631 0 0 1 12.5 6.875a5.599 5.599 0 0 1-.959 3.143l-4.666 7.656-4.68-7.678a5.599 5.599 0 0 1-.945-3.121A5.631 5.631 0 0 1 6.875 1.25Z"
     />
  <path
    d="M6.875 10A3.129 3.129 0 0 0 10 6.875 3.129 3.129 0 0 0 6.875 3.75 3.129 3.129 0 0 0 3.75 6.875 3.129 3.129 0 0 0 6.875 10Zm0-5c1.034 0 1.875.841 1.875 1.875A1.877 1.877 0 0 1 6.875 8.75 1.877 1.877 0 0 1 5 6.875C5 5.841 5.841 5 6.875 5ZM25.125 10.375a6.883 6.883 0 0 0-6.875 6.875c0 1.362.398 2.68 1.151 3.81l4.756 7.46a1.884 1.884 0 0 0-.8.98h-5.482a.625.625 0 1 0 0 1.25h5.483c.258.727.952 1.25 1.767 1.25a1.876 1.876 0 0 0 .968-3.48l4.756-7.46A6.846 6.846 0 0 0 32 17.25a6.883 6.883 0 0 0-6.875-6.875Zm0 20.375a.626.626 0 1 1 .001-1.251.626.626 0 0 1-.001 1.251Zm4.68-10.38c-.002.005-4.68 7.342-4.68 7.342l-4.68-7.341a5.599 5.599 0 0 1-.945-3.121 5.631 5.631 0 0 1 5.625-5.625 5.631 5.631 0 0 1 5.625 5.625 5.599 5.599 0 0 1-.945 3.12Z"
     />
  <path
    d="M25.125 14.125A3.129 3.129 0 0 0 22 17.25a3.129 3.129 0 0 0 3.125 3.125 3.129 3.129 0 0 0 3.125-3.125 3.129 3.129 0 0 0-3.125-3.125Zm0 5a1.877 1.877 0 0 1-1.875-1.875c0-1.034.841-1.875 1.875-1.875S27 16.216 27 17.25a1.877 1.877 0 0 1-1.875 1.875ZM15.063 30.75a.625.625 0 1 0 0-1.25.625.625 0 0 0 0 1.25Z"
     />
</svg>
