<?xml version="1.0" standalone="no"?>
<!DOCTYPE svg PUBLIC "-//W3C//DTD SVG 20010904//EN"
 "http://www.w3.org/TR/2001/REC-SVG-20010904/DTD/svg10.dtd">
<svg version="1.0" xmlns="http://www.w3.org/2000/svg"
 width="260.000000pt" height="260.000000pt" viewBox="0 0 260.000000 260.000000"
 preserveAspectRatio="xMidYMid meet">
<metadata>
Created by potrace 1.14, written by Peter Selinger 2001-2017
</metadata>
<g transform="translate(0.000000,260.000000) scale(0.100000,-0.100000)"
fill="#000000" stroke="none">
<path d="M1150 2593 c-303 -50 -513 -145 -713 -323 -231 -205 -378 -478 -425
-790 -9 -60 -9 -280 0 -355 19 -158 86 -348 170 -488 207 -341 529 -557 932
-625 84 -14 348 -7 436 12 269 58 491 177 672 362 201 205 316 434 363 719 13
79 14 328 1 390 -40 196 -60 257 -132 401 -130 260 -371 484 -649 602 -75 32
-225 75 -304 88 -45 7 -317 13 -351 7z m330 -279 c206 -39 379 -127 527 -268
212 -200 321 -458 321 -754 -1 -195 -47 -361 -149 -529 -46 -75 -57 -89 -139
-176 -192 -203 -447 -312 -736 -315 -413 -4 -790 244 -953 628 -17 39 -30 73
-30 75 0 3 -7 29 -15 58 -22 78 -27 112 -33 232 -18 380 184 741 523 932 101
57 226 102 322 117 19 2 36 7 39 9 10 11 254 4 323 -9z"/>
<path d="M1168 1774 c-118 -28 -214 -96 -280 -198 -141 -219 -75 -507 149
-642 141 -85 306 -88 463 -8 48 24 153 131 179 181 26 51 51 145 51 190 l0 33
-205 0 -205 0 0 -45 c0 -44 1 -45 33 -45 17 -1 85 -1 150 -1 l119 0 -7 -27
c-17 -69 -87 -155 -163 -199 -150 -88 -359 -47 -464 92 -141 184 -78 445 131
548 60 29 74 32 156 31 111 0 177 -27 252 -101 l50 -51 37 32 38 32 -47 47
c-118 120 -280 169 -437 131z"/>
<path d="M1945 1783 c-53 -14 -93 -65 -102 -131 -3 -23 4 -50 22 -87 l26 -54
-22 -30 c-46 -63 -24 -176 42 -215 63 -37 144 -13 181 54 25 46 20 125 -11
168 -21 30 -21 33 -6 49 40 39 47 128 15 181 -34 55 -87 79 -145 65z m85 -71
c25 -21 38 -89 21 -120 -31 -59 -111 -59 -145 -1 -49 83 50 181 124 121z m4
-253 c45 -53 29 -130 -30 -149 -44 -15 -71 -5 -95 33 -23 39 -24 59 -3 98 28
55 90 64 128 18z"/>
</g>
</svg>
