<svg width="80" height="80" viewBox="0 0 80 80" fill="none" xmlns="http://www.w3.org/2000/svg">
<path d="M66.0912 41.0823C65.9422 43.825 65.3512 46.5002 64.3741 49.0169C66.3864 50.6946 68.7801 51.8483 71.3025 51.2581C78.0718 49.6737 77.0235 55.2231 75.2045 58.5685C73.3851 61.9139 69.288 65.8276 66.9106 59.3349C66.0248 56.916 63.7411 55.5596 61.2255 54.8077C59.5976 57.0614 57.6048 59.0677 55.2969 60.722"  stroke-width="2" stroke-miterlimit="10" stroke-linecap="round" stroke-linejoin="round"/>
<path d="M56.917 29.3897C59.0729 30.5464 64.5495 30.7187 68.7042 26.4925C72.3632 20.6173 75.5719 25.2775 76.6669 28.9211C77.762 32.5645 77.6504 38.2097 71.3478 35.2888C65.541 34.0173 61.0557 37.1438 59.8911 39.2855"  stroke-width="2" stroke-miterlimit="10" stroke-linecap="round" stroke-linejoin="round"/>
<path d="M61.1106 24.5103C59.4723 22.2977 57.5016 20.3822 55.2955 18.8096C56.0525 16.3107 57.4178 14.0421 59.8529 13.1621C66.3885 10.8002 62.4493 6.73035 59.0814 4.92329C55.7137 3.11622 50.1274 2.07489 51.7223 8.79947C52.3164 11.3049 51.1551 13.6828 49.4661 15.6817C46.861 14.6834 44.0872 14.0907 41.2441 13.9644"  stroke-width="2" stroke-miterlimit="10" stroke-linecap="round" stroke-linejoin="round"/>
<path d="M38.7852 60.8135C41.102 62.0044 44.4553 66.6437 43.0124 72.7054C39.7708 79.3005 46.7384 79.112 50.7118 77.9336C54.6851 76.755 60.6162 73.1181 54.2653 69.368C49.7134 65.0841 49.9572 59.3778 51.2377 57.1202"  stroke-width="2" stroke-miterlimit="10" stroke-linecap="round" stroke-linejoin="round"/>
<path d="M17.512 55.4901C19.1502 57.7027 21.1211 59.6182 23.3271 61.1908C22.5701 63.6898 21.205 65.9583 18.7697 66.8383C12.2338 69.2003 16.1733 73.2703 19.5412 75.0771C22.9088 76.8842 28.4952 77.9255 26.9005 71.201C26.3062 68.6955 27.4675 66.3177 29.1564 64.3187C31.7615 65.317 34.5355 65.9097 37.3784 66.036"  stroke-width="2" stroke-miterlimit="10" stroke-linecap="round" stroke-linejoin="round"/>
<path d="M18.7312 40.7151C17.5666 42.8569 13.0816 45.9833 7.27476 44.7117C0.972156 41.7908 0.860407 47.436 1.95568 51.0794C3.05051 54.723 6.2594 59.3832 9.91838 53.508C14.0729 49.2818 19.5495 49.4541 21.7054 50.6108"  stroke-width="2" stroke-miterlimit="10" stroke-linecap="round" stroke-linejoin="round"/>
<path d="M27.3848 22.8801C28.6653 20.6223 28.9964 13.7785 24.357 10.6324C18.0063 6.88227 23.9373 3.24512 27.9107 2.06651C31.8842 0.888125 38.8517 0.699663 35.6101 7.29473C33.7345 12.9715 37.5203 17.996 39.8374 19.1866"  stroke-width="2" stroke-miterlimit="10" stroke-linecap="round" stroke-linejoin="round"/>
<path d="M12.531 38.9181C12.68 36.1753 13.2713 33.5002 14.2481 30.9835C12.2358 29.3058 9.84189 28.1521 7.31976 28.7423C0.550412 30.3267 1.59868 24.7772 3.41778 21.4318C5.23708 18.0862 9.3342 14.1728 11.7116 20.6655C12.5975 23.0842 14.8812 24.4405 17.3968 25.1927C19.0246 22.939 21.0174 20.9327 23.3251 19.2784"  stroke-width="2" stroke-miterlimit="10" stroke-linecap="round" stroke-linejoin="round"/>
<path d="M50.9207 50.7019C53.7915 50.7019 56.1187 48.3901 56.1187 45.5383C56.1187 42.6865 53.7915 40.3746 50.9207 40.3746C48.0499 40.3746 45.7227 42.6865 45.7227 45.5383C45.7227 48.3901 48.0499 50.7019 50.9207 50.7019Z"  stroke-width="2" stroke-miterlimit="10" stroke-linecap="round" stroke-linejoin="round"/>
<path d="M44.7996 36.351C47.6704 36.351 49.9976 34.0391 49.9976 31.1873C49.9976 28.3355 47.6704 26.0237 44.7996 26.0237C41.9288 26.0237 39.6016 28.3355 39.6016 31.1873C39.6016 34.0391 41.9288 36.351 44.7996 36.351Z"  stroke-width="2" stroke-miterlimit="10" stroke-linecap="round" stroke-linejoin="round"/>
<path d="M27.2058 37.9765C30.0766 37.9765 32.4039 35.6646 32.4039 32.8128C32.4039 29.961 30.0766 27.6492 27.2058 27.6492C24.335 27.6492 22.0078 29.961 22.0078 32.8128C22.0078 35.6646 24.335 37.9765 27.2058 37.9765Z"  stroke-width="2" stroke-miterlimit="10" stroke-linecap="round" stroke-linejoin="round"/>
<path d="M33.823 53.9767C36.6938 53.9767 39.0211 51.6649 39.0211 48.8131C39.0211 45.9613 36.6938 43.6494 33.823 43.6494C30.9522 43.6494 28.625 45.9613 28.625 48.8131C28.625 51.6649 30.9522 53.9767 33.823 53.9767Z"  stroke-width="2" stroke-miterlimit="10" stroke-linecap="round" stroke-linejoin="round"/>
</svg>
