<svg width="80" height="80" viewBox="0 0 80 80" fill="none" xmlns="http://www.w3.org/2000/svg">
<path d="M6.7741 21.6104C6.70285 22.4505 7.32708 23.1893 8.16726 23.26L8.19295 23.2622C9.03313 23.3329 9.77204 22.7092 9.84328 21.8691"  stroke-width="2" stroke-miterlimit="10" stroke-linecap="round" stroke-linejoin="round"/>
<path d="M18.2068 18.8591L18.1691 18.5407C18.0907 17.8518 18.5867 17.2302 19.2757 17.153C19.952 17.0768 20.5663 17.5547 20.6584 18.2294L20.6857 18.4289C24.6854 17.917 27.479 20.722 25.8754 25.5602C23.5006 32.7245 19.6794 42.1659 13.882 42.1659C8.08464 42.1659 4.26367 32.7239 1.88893 25.5602C0.285303 20.722 3.07863 17.917 7.07837 18.4289L7.10593 18.2294C7.19801 17.5547 7.81181 17.0762 8.48866 17.153C9.17757 17.2302 9.67306 17.8518 9.59468 18.5407L9.55802 18.8591"  stroke-width="2" stroke-miterlimit="10" stroke-linecap="round" stroke-linejoin="round"/>
<path d="M20.9891 21.6104C21.0604 22.4505 20.4361 23.1893 19.5959 23.26L19.57 23.2622C18.7298 23.3329 17.9912 22.7092 17.9199 21.8691"  stroke-width="2" stroke-miterlimit="10" stroke-linecap="round" stroke-linejoin="round"/>
<path d="M13.8813 42.1659V57.3422C13.8813 60.8728 11.0193 63.7348 7.48872 63.7348C4.66456 63.7348 2.19224 61.5168 2.37474 58.6208C2.53697 56.0542 4.21805 54.7143 6.46619 54.5296C6.46619 54.5296 9.31884 54.2539 10.9307 56.8215"  stroke-width="2" stroke-miterlimit="10" stroke-linecap="round" stroke-linejoin="round"/>
<path d="M40.2382 57.3581C39.7669 56.6774 39.3892 55.9343 39.1333 55.144C38.4257 52.9588 38.8097 51.2111 39.4718 49.933C40.4978 47.9523 42.4995 46.6414 44.7263 46.4956C48.9058 46.221 50.7378 50.4471 50.7378 50.4471C50.7378 50.4471 52.5696 46.221 56.7491 46.4956C58.9758 46.6414 60.9779 47.9523 62.0033 49.933C62.6659 51.2111 63.0499 52.9588 62.3423 55.144C62.0864 55.9337 61.7096 56.6774 61.2371 57.3581C61.0563 57.6207 60.8617 57.8755 60.6529 58.1177C59.7327 59.1886 57.9815 60.9085 56.2294 62.3822C56.2294 62.3822 54.5135 63.8856 53.3007 65.0381L50.7378 67.2917L48.1752 65.0381C46.9623 63.8856 45.2457 62.3817 45.2457 62.3817"  stroke-width="2" stroke-miterlimit="10" stroke-linecap="round" stroke-linejoin="round"/>
<path d="M66.7773 20.2441C66.7773 20.2441 67.898 19.6626 69.0265 18.5396C72.8558 14.7284 70.7133 7.99983 65.368 7.20953C63.0898 6.87247 60.3913 7.71924 58.1113 11.913"  stroke-width="2" stroke-miterlimit="10" stroke-linecap="round" stroke-linejoin="round"/>
<path d="M33.8541 20.2441C33.8541 20.2441 32.7333 19.6626 31.6049 18.5396C27.7756 14.7284 29.9187 7.99983 35.2633 7.20953C37.5416 6.87247 40.2401 7.71924 42.5195 11.913"  stroke-width="2" stroke-miterlimit="10" stroke-linecap="round" stroke-linejoin="round"/>
<path d="M68.928 50.6587C68.1733 45.7859 66.2689 41.0057 62.165 37.9497"  stroke-width="2" stroke-miterlimit="10" stroke-linecap="round" stroke-linejoin="round"/>
<path d="M42.0469 70.4973C47.6623 71.5035 53.4136 71.4981 59.0274 70.4814"  stroke-width="2" stroke-miterlimit="10" stroke-linecap="round" stroke-linejoin="round"/>
<path d="M38.8196 37.9491C34.7157 41.0051 32.8113 45.7858 32.0566 50.6581"  stroke-width="2" stroke-miterlimit="10" stroke-linecap="round" stroke-linejoin="round"/>
<path d="M25.4454 52.219C23.9794 51.1514 23.0482 49.3778 22.9205 47.5583C22.7748 45.4784 23.6205 43.3848 25.0405 41.8573C25.3913 41.4797 25.7736 41.1361 26.1803 40.8243C28.1401 39.3215 30.6186 38.6682 33.0832 38.8233C34.4287 38.9077 35.9632 39.1225 36.9349 39.6333"  stroke-width="2" stroke-miterlimit="10" stroke-linecap="round" stroke-linejoin="round"/>
<path d="M75.82 52.3653C77.4072 51.3185 78.4226 49.4639 78.5558 47.5577C78.7016 45.4778 77.8561 43.3842 76.4366 41.8568C76.0853 41.4792 75.7033 41.1355 75.2966 40.8237C73.3367 39.3209 70.8583 38.6676 68.3937 38.8227C67.0476 38.9071 65.5132 39.122 64.542 39.6327"  stroke-width="2" stroke-miterlimit="10" stroke-linecap="round" stroke-linejoin="round"/>
<path d="M26.6712 63.7798C25.0221 58.3315 26.8632 52.8471 31.0849 51.1602C32.4353 50.6209 33.8767 50.5304 35.2967 50.8237"  stroke-width="2" stroke-miterlimit="10" stroke-linecap="round" stroke-linejoin="round"/>
<path d="M44.2736 66.0295C43.6757 68.9008 42.0102 71.2361 39.5072 72.2363C36.4765 73.4475 32.9852 72.3942 30.3096 69.8221"  stroke-width="2" stroke-miterlimit="10" stroke-linecap="round" stroke-linejoin="round"/>
<path d="M56.8584 66.2252C57.4898 69.0066 59.1362 71.2591 61.5822 72.2363C66.1141 74.0471 71.6724 70.7971 73.9979 64.9767C76.3238 59.1568 74.5357 52.9709 70.0044 51.1601C68.5761 50.589 67.0452 50.5211 65.5452 50.8784"  stroke-width="2" stroke-miterlimit="10" stroke-linecap="round" stroke-linejoin="round"/>
<path d="M56.2678 24.6554C56.5139 24.6554 56.7134 24.456 56.7134 24.2099C56.7134 23.9638 56.5139 23.7643 56.2678 23.7643C56.0217 23.7643 55.8223 23.9638 55.8223 24.2099C55.8223 24.456 56.0217 24.6554 56.2678 24.6554Z"  stroke-width="2" stroke-miterlimit="10" stroke-linecap="round" stroke-linejoin="round"/>
<path d="M44.7171 24.6554C44.9631 24.6554 45.1626 24.456 45.1626 24.2099C45.1626 23.9638 44.9631 23.7643 44.7171 23.7643C44.471 23.7643 44.2715 23.9638 44.2715 24.2099C44.2715 24.456 44.471 24.6554 44.7171 24.6554Z"  stroke-width="2" stroke-miterlimit="10" stroke-linecap="round" stroke-linejoin="round"/>
<path d="M50.5367 41.3454C59.8028 41.3454 67.3144 34.4015 67.3144 25.8359C67.3144 17.2702 59.8028 10.3263 50.5367 10.3263C41.2706 10.3263 33.7588 17.2702 33.7588 25.8359C33.7588 34.4015 41.2706 41.3454 50.5367 41.3454Z"  stroke-width="2" stroke-miterlimit="10" stroke-linecap="round" stroke-linejoin="round"/>
<path d="M50.5371 33.0111V35.3886"  stroke-width="2" stroke-miterlimit="10" stroke-linecap="round" stroke-linejoin="round"/>
<path d="M43.7871 33.5773C43.7871 33.5773 45.9155 37.3057 50.5372 35.3886"  stroke-width="2" stroke-miterlimit="10" stroke-linecap="round" stroke-linejoin="round"/>
<path d="M57.2879 33.5773C57.2879 33.5773 55.1599 37.3057 50.5381 35.3886"  stroke-width="2" stroke-miterlimit="10" stroke-linecap="round" stroke-linejoin="round"/>
<path d="M50.5372 33.0117C52.4011 33.0117 53.912 32.0495 53.912 30.8627C53.912 29.6759 52.4011 28.7137 50.5372 28.7137C48.6732 28.7137 47.1621 29.6759 47.1621 30.8627C47.1621 32.0495 48.6732 33.0117 50.5372 33.0117Z"  stroke-width="2" stroke-miterlimit="10" stroke-linecap="round" stroke-linejoin="round"/>
<path d="M13.3115 59.9532C15.1651 61.6779 17.033 63.4136 19.1748 64.7641C21.3166 66.115 23.7729 67.0719 26.3055 67.0785C29.128 67.0856 31.813 65.927 34.3506 64.6889C38.8194 62.5077 43.1338 60.0091 47.2514 57.2195"  stroke-width="2" stroke-miterlimit="10" stroke-linecap="round" stroke-linejoin="round"/>
<path d="M44.4346 56.2028C44.8851 54.9516 46.1364 54.112 47.523 54.2386C49.1699 54.3887 50.3827 55.8455 50.232 57.4919C50.0818 59.1382 48.6251 60.3511 46.9787 60.2009"  stroke-width="2" stroke-miterlimit="10" stroke-linecap="round" stroke-linejoin="round"/>
</svg>
