<svg width="32" height="32" viewBox="0 0 32 32" fill="none" xmlns="http://www.w3.org/2000/svg">
<path d="M28.5857 6.12105H29.5744C29.9193 6.12105 30.199 5.84135 30.199 5.49646C30.199 5.15156 29.9193 4.87187 29.5744 4.87187H27.201C26.8561 4.87187 26.5764 5.15156 26.5764 5.49646V7.8699C26.5764 8.2148 26.8561 8.49449 27.201 8.49449C27.5459 8.49449 27.8256 8.2148 27.8256 7.8699V7.18266C29.7207 9.71981 30.7508 12.7982 30.7508 16C30.7508 24.1337 24.1337 30.7508 16 30.7508C7.86634 30.7508 1.24918 24.1337 1.24918 16C1.24918 7.86634 7.86634 1.24918 16 1.24918C16.6015 1.24918 17.207 1.28572 17.7996 1.35773C18.1415 1.39908 18.4534 1.15555 18.495 0.813091C18.5366 0.470691 18.2928 0.15927 17.9503 0.117673C17.3079 0.039599 16.6518 0 16 0C11.7262 0 7.70825 1.66428 4.6863 4.6863C1.66428 7.70825 0 11.7262 0 16C0 20.2738 1.66428 24.2917 4.6863 27.3137C7.70825 30.3357 11.7262 32 16 32C20.2738 32 24.2917 30.3357 27.3137 27.3137C30.3357 24.2917 32 20.2738 32 16C32 12.3936 30.7952 8.93133 28.5857 6.12105Z" fill="#C3167C"/>
<path d="M6.77438 9.43202C6.48288 9.24752 6.09707 9.33434 5.91251 9.62565C4.48663 11.8777 3.85542 14.586 4.13517 17.2518C4.41905 19.9572 5.63669 22.5084 7.5638 24.4356C9.88946 26.7612 12.9444 27.9241 15.9994 27.9241C19.0544 27.9241 22.1093 26.7613 24.435 24.4356C29.0864 19.7842 29.0864 12.2158 24.435 7.56444C22.5108 5.64032 19.9638 4.42312 17.2629 4.13706C14.6021 3.85506 11.8966 4.48133 9.64556 5.90022C9.35369 6.08416 9.26631 6.46984 9.45019 6.76165C9.63413 7.05352 10.0198 7.1409 10.3116 6.95702C14.555 4.28253 19.9993 4.89544 23.5516 8.44773C27.7159 12.6121 27.7159 19.3879 23.5516 23.5522C19.3874 27.7166 12.6114 27.7166 8.44716 23.5522C4.94395 20.049 4.32186 14.4731 6.968 10.294C7.15244 10.0025 7.06581 9.61659 6.77438 9.43202Z" fill="#C3167C"/>
<path d="M24.1207 16.6347H24.8909C25.2358 16.6347 25.5155 16.355 25.5155 16.0101C25.5155 15.6652 25.2358 15.3855 24.8909 15.3855H24.1207C23.7758 15.3855 23.4961 15.6652 23.4961 16.0101C23.4961 16.355 23.7757 16.6347 24.1207 16.6347Z" fill="#C3167C"/>
<path d="M6.48633 15.9898C6.48633 16.3347 6.76602 16.6144 7.11092 16.6144H7.88116C8.22606 16.6144 8.50575 16.3347 8.50575 15.9898C8.50575 15.6449 8.22606 15.3652 7.88116 15.3652H7.11092C6.76602 15.3652 6.48633 15.6449 6.48633 15.9898Z" fill="#C3167C"/>
<path d="M16.6339 7.88032V7.11008C16.6339 6.76518 16.3542 6.48549 16.0094 6.48549C15.6645 6.48549 15.3848 6.76518 15.3848 7.11008V7.88032C15.3848 8.22522 15.6645 8.50491 16.0094 8.50491C16.3542 8.50491 16.6339 8.22522 16.6339 7.88032Z" fill="#C3167C"/>
<path d="M15.3652 24.1197V24.8899C15.3652 25.2348 15.6449 25.5145 15.9898 25.5145C16.3347 25.5145 16.6144 25.2348 16.6144 24.8899V24.1197C16.6144 23.7748 16.3347 23.4951 15.9898 23.4951C15.6449 23.4951 15.3652 23.7747 15.3652 24.1197Z" fill="#C3167C"/>
<path d="M12.869 11.986C12.6251 11.7422 12.2297 11.7422 11.9857 11.986C11.7418 12.2299 11.7418 12.6254 11.9857 12.8694L14.1025 14.9862C13.9403 15.2885 13.848 15.6337 13.848 16.0001C13.848 17.1865 14.8132 18.1518 15.9997 18.1518C17.1862 18.1518 18.1514 17.1865 18.1514 16.0001C18.1514 15.6337 18.0591 15.2885 17.897 14.9862L22.1681 10.715C22.412 10.4711 22.412 10.0756 22.1681 9.83167C21.9241 9.58783 21.5288 9.58783 21.2847 9.83167L17.0136 14.1028C16.7113 13.9406 16.3661 13.8483 15.9997 13.8483C15.6333 13.8483 15.2881 13.9407 14.9858 14.1028L12.869 11.986ZM16.9022 16.0001C16.9022 16.4977 16.4974 16.9026 15.9997 16.9026C15.502 16.9026 15.0972 16.4977 15.0972 16.0001C15.0972 15.5024 15.502 15.0975 15.9997 15.0975C16.4974 15.0975 16.9022 15.5024 16.9022 16.0001Z" fill="#C3167C"/>
<path d="M8.44703 8.44737C8.56383 8.3312 8.63059 8.17005 8.63059 8.00578C8.63059 7.84152 8.56383 7.681 8.44703 7.5642C8.33086 7.44809 8.17027 7.3812 8.00545 7.3812C7.84118 7.3812 7.68004 7.44803 7.56386 7.5642C7.44775 7.68037 7.38086 7.84152 7.38086 8.00578C7.38086 8.17068 7.44769 8.3312 7.56386 8.44737C7.68004 8.56348 7.84118 8.63037 8.00545 8.63037C8.17027 8.63037 8.33086 8.56348 8.44703 8.44737Z" fill="#C3167C"/>
<path d="M20.3258 1.86609C20.4907 1.86609 20.6519 1.79982 20.768 1.68309C20.8841 1.56691 20.951 1.40633 20.951 1.2415C20.951 1.07724 20.8842 0.916091 20.768 0.799918C20.6519 0.683806 20.4907 0.616913 20.3258 0.616913C20.1615 0.616913 20.0004 0.683744 19.8842 0.799918C19.7681 0.916091 19.7012 1.07724 19.7012 1.2415C19.7012 1.40639 19.768 1.56691 19.8842 1.68309C20.0004 1.79982 20.1615 1.86609 20.3258 1.86609Z" fill="#C3167C"/>
</svg>
