<svg width="32" height="32" viewBox="0 0 32 32" fill="none" xmlns="http://www.w3.org/2000/svg">
<path d="M11.7616 20.2402C16.1136 24.5922 21.1788 25.5965 22.8507 25.5433C24.0588 23.879 24.7686 22.4199 25.2609 21.2043C24.2688 20.0056 21.6445 18.6434 20.4397 18.312L18.8784 19.9422C18.1475 19.709 16.5309 19.2236 14.6545 17.3479C12.7788 15.4715 12.3363 13.8972 12.1032 13.1663L13.6904 11.562C13.147 9.82062 11.8829 7.91562 10.7982 6.74084C9.58247 7.23312 8.12337 7.94289 6.45905 9.15107C6.40519 10.8229 7.40951 15.8881 11.7616 20.2402Z" stroke="#C3167C" stroke-width="1.4" stroke-miterlimit="10"/>
<path d="M25.5455 27.5711C22.9518 29.7134 19.6259 31 16 31C7.71591 31 1 24.2841 1 16C1 7.71591 7.71591 1 16 1C24.2841 1 31 7.71591 31 16C31 18.145 30.1654 20.2471 29.3241 21.4832C27.9884 23.4434 26.0854 24.4375 24.0277 23.7318" stroke="#C3167C" stroke-width="1.4" stroke-miterlimit="10" stroke-linecap="round"/>
</svg>
