<svg width="80" height="80" viewBox="0 0 80 80" fill="none" xmlns="http://www.w3.org/2000/svg">
<path d="M44.2802 52.0958L42.8251 53.5211C41.2556 55.0592 38.7449 55.0592 37.1754 53.5211L35.7197 52.0952" />
<path d="M44.2802 52.0958L42.8251 53.5211C41.2556 55.0592 38.7449 55.0592 37.1754 53.5211L35.7197 52.0952"  stroke-width="2" stroke-miterlimit="10" stroke-linecap="round" stroke-linejoin="round"/>
<path d="M42.2086 54.017L46.9781 71.5351L40.0003 78.5715L33.0215 71.5351L37.7915 54.0176"  stroke-width="2" stroke-miterlimit="10" stroke-linecap="round"/>
<path d="M51.7153 71.37L68.5712 67.8768L66.3434 56.7152C65.8507 54.2539 64.5146 52.0141 62.5749 50.4105C61.3359 49.3912 60.082 48.7349 58.8811 48.4709L49.3536 45.7031C49.1472 45.6433 48.9511 45.5512 48.7729 45.431C48.2704 45.0928 47.941 44.5515 47.8715 43.9499L47.4316 40.1778C50.0998 38.1053 52.0724 35.0091 53.0192 31.3917C54.7204 31.2404 56.0266 29.348 56.0266 26.9598C56.0266 24.7528 54.9187 22.9685 53.4016 22.5872"  stroke-width="2" stroke-miterlimit="10" stroke-linecap="round"/>
<path d="M26.5173 22.6113C25.0432 23.0324 23.975 24.7919 23.975 26.9598C23.975 29.3451 25.2743 31.2358 26.9726 31.3917C27.9247 35.0051 29.8966 38.103 32.5631 40.1778L32.1273 43.9493C32.0571 44.5516 31.7283 45.0928 31.227 45.4316C31.0488 45.5518 30.8527 45.6438 30.6457 45.7037L21.1511 48.4611C19.9208 48.7326 18.664 49.3901 17.4279 50.4105C15.4813 52.0193 14.1446 54.2574 13.6565 56.7152L11.4287 67.8769L26.5127 71.003"  stroke-width="2" stroke-miterlimit="10" stroke-linecap="round"/>
<path d="M27.5288 15.8251C26.3721 19.3717 26.5176 22.6112 26.5176 22.6112L27.5288 15.8251Z" />
<path d="M27.5288 15.8251C26.3721 19.3717 26.5176 22.6112 26.5176 22.6112"  stroke-width="2" stroke-miterlimit="10" stroke-linecap="round"/>
<path d="M53.4019 22.5877C53.4019 22.5877 53.5641 19.3378 52.416 15.786L53.4019 22.5877Z" />
<path d="M53.4019 22.5877C53.4019 22.5877 53.5641 19.3378 52.416 15.786"  stroke-width="2" stroke-miterlimit="10" stroke-linecap="round"/>
<path d="M52.4152 15.7854C49.8355 17.1015 47.2047 17.4201 44.333 17.1038C41.3193 16.7713 38.972 15.327 36.2837 14.0995C34.4227 13.2494 32.2679 12.6903 30.3454 13.3897C29.1611 13.8211 28.0802 14.6919 27.5283 15.8251"  stroke-width="2" stroke-miterlimit="10" stroke-linecap="round"/>
<path d="M47.7705 43.0669L40.0006 50.0285L32.2295 43.0669"  stroke-width="2" stroke-miterlimit="10" stroke-linecap="round" stroke-linejoin="round"/>
<path d="M52.4121 61.7797L61.206 60.1232"  stroke-width="2" stroke-miterlimit="10" stroke-linecap="round" stroke-linejoin="round"/>
<path d="M27.2852 16.6367V5.59071C27.2852 3.29223 29.1479 1.42859 31.4452 1.42859H48.2556C50.553 1.42859 52.4152 3.29223 52.4152 5.59071V15.7849"  stroke-width="2" stroke-miterlimit="10" stroke-linecap="round"/>
<path d="M39.8496 11.0136V5.18518"  stroke-width="2" stroke-miterlimit="10" stroke-linecap="round"/>
<path d="M36.9375 8.09973H42.7625"  stroke-width="2" stroke-miterlimit="10" stroke-linecap="round"/>
</svg>
