<svg width="80" height="80" viewBox="0 0 80 80" fill="none" xmlns="http://www.w3.org/2000/svg">
<path d="M31.1901 61.6143L24.9406 65.2446L9.37207 56.2021V41.8102"  stroke-width="2" stroke-miterlimit="10" stroke-linecap="round" stroke-linejoin="round"/>
<path d="M12.5498 36.2717L24.9411 29.074L34.1375 34.4159"  stroke-width="2" stroke-miterlimit="10" stroke-linecap="round" stroke-linejoin="round"/>
<path d="M24.9404 29.0825V10.9974L40.5083 1.95435L52.899 9.15212"  stroke-width="2" stroke-miterlimit="10" stroke-linecap="round" stroke-linejoin="round"/>
<path d="M56.0762 14.6956V30.0724"  stroke-width="2" stroke-miterlimit="10" stroke-linecap="round" stroke-linejoin="round"/>
<path d="M24.9409 10.9974L16.3633 6.14917"  stroke-width="2" stroke-miterlimit="10" stroke-linecap="round" stroke-linejoin="round"/>
<path d="M13.5366 7.86088C15.3022 7.86088 16.7334 6.42096 16.7334 4.64474C16.7334 2.86851 15.3022 1.42859 13.5366 1.42859C11.7711 1.42859 10.3398 2.86851 10.3398 4.64474C10.3398 6.42096 11.7711 7.86088 13.5366 7.86088Z"  stroke-width="2" stroke-miterlimit="10" stroke-linecap="round" stroke-linejoin="round"/>
<path d="M1.42871 38.117C1.42871 33.7101 4.99185 30.1248 9.37225 30.1248"  stroke-width="2" stroke-miterlimit="10" stroke-linecap="round" stroke-linejoin="round"/>
<path d="M9.37178 41.8101C11.3995 41.8101 13.0433 40.1564 13.0433 38.1164C13.0433 36.0763 11.3995 34.4226 9.37178 34.4226C7.34402 34.4226 5.7002 36.0763 5.7002 38.1164C5.7002 40.1564 7.34402 41.8101 9.37178 41.8101Z"  stroke-width="2" stroke-miterlimit="10" stroke-linecap="round" stroke-linejoin="round"/>
<path d="M56.0771 3.00513C60.4569 3.00513 64.0201 6.59048 64.0201 10.9974"  stroke-width="2" stroke-miterlimit="10" stroke-linecap="round" stroke-linejoin="round"/>
<path d="M56.0768 14.6911C58.1046 14.6911 59.7484 13.0374 59.7484 10.9974C59.7484 8.95731 58.1046 7.30359 56.0768 7.30359C54.0491 7.30359 52.4053 8.95731 52.4053 10.9974C52.4053 13.0374 54.0491 14.6911 56.0768 14.6911Z"  stroke-width="2" stroke-miterlimit="10" stroke-linecap="round" stroke-linejoin="round"/>
<path d="M9.37247 56.2021L5.21875 58.5881"  stroke-width="2" stroke-miterlimit="10" stroke-linecap="round" stroke-linejoin="round"/>
<path d="M3.54453 62.036C4.71253 62.036 5.65937 61.0833 5.65937 59.9082C5.65937 58.7332 4.71253 57.7806 3.54453 57.7806C2.37653 57.7806 1.42969 58.7332 1.42969 59.9082C1.42969 61.0833 2.37653 62.036 3.54453 62.036Z"  stroke-width="2" stroke-miterlimit="10" stroke-linecap="round" stroke-linejoin="round"/>
<path d="M50.2868 50.4867V37.9106C51.1605 37.9106 51.8687 37.1981 51.8687 36.3191V33.7699H38.1553V36.3191C38.1553 37.1981 38.8635 37.9106 39.7371 37.9106V50.4867"  stroke-width="2" stroke-miterlimit="10" stroke-linecap="round" stroke-linejoin="round"/>
<path d="M42.5329 57.3965H36.1975C34.3014 57.3965 32.7637 55.8495 32.7637 53.9418C32.7637 52.0336 34.3014 50.4872 36.1975 50.4872H50.1768"  stroke-width="2" stroke-miterlimit="10" stroke-linecap="round" stroke-linejoin="round"/>
<path d="M43.6227 64.3071H38.3001C36.4033 64.3071 34.8662 62.76 34.8662 60.8524"  stroke-width="2" stroke-miterlimit="10" stroke-linecap="round" stroke-linejoin="round"/>
<path d="M43.6224 71.2171H40.5745C38.6777 71.2171 37.1406 69.6701 37.1406 67.7625"  stroke-width="2" stroke-miterlimit="10" stroke-linecap="round" stroke-linejoin="round"/>
<path d="M72.4349 72.5176C66.1088 72.3808 64.9043 72.8967 64.9043 72.8967C64.9043 72.8967 63.328 73.2074 61.3246 73.8564C55.1271 75.8639 50.7522 76.9486 44.2484 77.1193L42.6604 77.1428C40.7637 77.1428 39.2266 75.5958 39.2266 73.6882"  stroke-width="2" stroke-miterlimit="10" stroke-linecap="round" stroke-linejoin="round"/>
<path d="M50.1768 42.551C50.5131 42.5214 50.855 42.4844 51.2029 42.4375C54.2453 42.0338 57.3324 42.7555 59.8596 44.5066C61.4629 45.6185 63.2818 46.9498 64.9556 48.3397C64.9556 48.3397 68.3214 51.7685 72.4341 51.7685"  stroke-width="2" stroke-miterlimit="10" stroke-linecap="round" stroke-linejoin="round"/>
<path d="M39.2256 73.6881V71.2172"  stroke-width="2" stroke-miterlimit="10" stroke-linecap="round" stroke-linejoin="round"/>
<path d="M37.1406 67.7617V64.1006"  stroke-width="2" stroke-miterlimit="10" stroke-linecap="round" stroke-linejoin="round"/>
<path d="M78.5718 47.8702H74.3807C73.3061 47.8702 72.4355 48.7461 72.4355 49.8272V74.474C72.4355 75.5551 73.3061 76.4315 74.3807 76.4315H78.5718"  stroke-width="2" stroke-miterlimit="10" stroke-linecap="round" stroke-linejoin="round"/>
<path d="M34.8672 60.8518V57.1272"  stroke-width="2" stroke-miterlimit="10" stroke-linecap="round" stroke-linejoin="round"/>
<path d="M39.7363 37.9106H42.9864"  stroke-width="2" stroke-miterlimit="10" stroke-linecap="round" stroke-linejoin="round"/>
</svg>
