<svg width="44" height="46" viewBox="0 0 44 46" fill="none" xmlns="http://www.w3.org/2000/svg">
<path d="M33 19V1H7L1 7V45H33V37" fill="white"/>
<path d="M33 19V1H7L1 7V45H33V37" stroke="#0098D0" stroke-width="2" stroke-miterlimit="10" stroke-linecap="round"/>
<path d="M5 11H11V5" stroke="#0098D0" stroke-width="2" stroke-miterlimit="10" stroke-linecap="round"/>
<path d="M8 22C8 19.7909 9.79086 18 12 18H40C42.2091 18 44 19.7909 44 22V34C44 36.2091 42.2091 38 40 38H12C9.79086 38 8 36.2091 8 34V22Z" fill="#303F82"/>
<path d="M21.3027 26.5234C21.3027 27.418 21.0098 28.1035 20.4238 28.5801C19.8379 29.0566 19.0039 29.2949 17.9219 29.2949H17.0312V32.5H15.6309V23.9336H18.0977C19.168 23.9336 19.9688 24.1523 20.5 24.5898C21.0352 25.0273 21.3027 25.6719 21.3027 26.5234ZM17.0312 28.1172H17.7754C18.4941 28.1172 19.0215 27.9922 19.3574 27.7422C19.6934 27.4922 19.8613 27.1016 19.8613 26.5703C19.8613 26.0781 19.7109 25.7109 19.4102 25.4688C19.1094 25.2266 18.6406 25.1055 18.0039 25.1055H17.0312V28.1172ZM29.9805 28.1348C29.9805 29.5488 29.5879 30.6309 28.8027 31.3809C28.0176 32.127 26.8867 32.5 25.4102 32.5H23.0137V23.9336H25.6621C27.0254 23.9336 28.0859 24.3008 28.8438 25.0352C29.6016 25.7695 29.9805 26.8027 29.9805 28.1348ZM28.5039 28.1816C28.5039 26.1309 27.5449 25.1055 25.627 25.1055H24.4141V31.3223H25.4102C27.4727 31.3223 28.5039 30.2754 28.5039 28.1816ZM33.2148 32.5H31.8262V23.9336H36.6602V25.1172H33.2148V27.7949H36.4434V28.9844H33.2148V32.5Z" fill="white"/>
</svg>
