<svg width="80" height="80" fill="none" xmlns="http://www.w3.org/2000/svg"><path d="m70.291 24.531-3.502-3.063A31.17 31.17 0 0 0 46.25 13.75c-4.136 0-7.5-3.364-7.5-7.5v-5h-2.5v5c0 5.514 4.486 10 10 10a28.673 28.673 0 0 1 18.892 7.1l3.503 3.064a22.263 22.263 0 0 1 7.605 16.758c0 5.697-2.15 11.117-6.052 15.263l-5.44 5.78A26.43 26.43 0 0 1 45.583 72.5c-6.515 0-12.772-2.4-17.614-6.759l-1.953-1.756a10.624 10.624 0 0 0-7.123-2.735 10.579 10.579 0 0 0-7.53 3.119 8.868 8.868 0 0 0-2.614 6.308v8.073h2.5v-8.073c0-1.715.669-3.327 1.881-4.54a8.095 8.095 0 0 1 5.763-2.387c2.016 0 3.952.744 5.451 2.093l1.953 1.756A28.783 28.783 0 0 0 45.584 75a28.943 28.943 0 0 0 20.993-9.071l5.44-5.78a24.682 24.682 0 0 0 6.733-16.977 24.766 24.766 0 0 0-8.459-18.64Z" /><path d="M10.819 58.864a12.459 12.459 0 0 1 7.617-2.614c4.554 0 8.797-2.04 11.64-5.595l2.958-3.697a14.729 14.729 0 0 0 3.216-9.168v-.876c0-3.818 2.059-7.365 5.373-9.259a10.69 10.69 0 0 1 5.29-1.405h4.337v-2.5h-4.336c-2.288 0-4.547.599-6.532 1.735-.58.331-1.118.713-1.632 1.12v-.474c0-3.474-1.531-6.744-4.2-8.967a9.142 9.142 0 0 1-3.3-7.045V1.25h-2.5v8.869c0 3.473 1.531 6.744 4.2 8.967a9.143 9.143 0 0 1 3.3 7.047v3.106c-1.586 2.206-2.5 4.876-2.5 7.676v.876c0 2.754-.947 5.455-2.668 7.605l-2.957 3.697a12.344 12.344 0 0 1-9.689 4.657 14.974 14.974 0 0 0-9.151 3.141l-1.76 1.369A16.138 16.138 0 0 0 1.25 71.086v7.664h2.5v-7.664c0-4.275 1.935-8.23 5.309-10.855l1.76-1.367ZM40 41.25a1.25 1.25 0 0 0-1.186.855l-.764 2.291a14.818 14.818 0 0 1-5.813 7.61 7.814 7.814 0 0 0-3.487 6.517c0 2.092.815 4.058 2.3 5.546l.094.091A19.801 19.801 0 0 0 45.24 70h2.019a19.802 19.802 0 0 0 14.097-5.84l5.84-5.839A22.228 22.228 0 0 0 73.75 42.5v-3.75c0-.691-.56-1.25-1.25-1.25h-5.91c-3.695 0-7.321.657-10.779 1.954a28.072 28.072 0 0 1-9.901 1.796H40Zm16.689.546A28.072 28.072 0 0 1 66.59 40h4.66v2.5a19.747 19.747 0 0 1-5.821 14.054l-5.84 5.838A17.318 17.318 0 0 1 47.26 67.5h-2.019a17.323 17.323 0 0 1-12.335-5.114l-.092-.091a5.299 5.299 0 0 1-1.564-3.773c0-1.787.888-3.446 2.375-4.437a17.342 17.342 0 0 0 6.797-8.899l.48-1.436h5.008c3.695 0 7.321-.657 10.779-1.954Z" /><path d="M48.75 65a3.755 3.755 0 0 0 3.75-3.75 3.755 3.755 0 0 0-3.75-3.75A3.755 3.755 0 0 0 45 61.25 3.755 3.755 0 0 0 48.75 65Zm0-5c.689 0 1.25.56 1.25 1.25s-.561 1.25-1.25 1.25-1.25-.56-1.25-1.25.561-1.25 1.25-1.25ZM38.75 56.25A3.755 3.755 0 0 0 35 60a3.755 3.755 0 0 0 3.75 3.75A3.755 3.755 0 0 0 42.5 60a3.755 3.755 0 0 0-3.75-3.75Zm0 5c-.689 0-1.25-.56-1.25-1.25s.561-1.25 1.25-1.25S40 59.31 40 60s-.561 1.25-1.25 1.25ZM41.25 52.5h2.5V55h-2.5v-2.5ZM46.25 50h2.5v2.5h-2.5V50ZM55 60h2.5v2.5H55V60ZM57.5 55H60v2.5h-2.5V55ZM52.5 52.5H55V55h-2.5v-2.5Z" /></svg>
