<svg width="80" height="80" fill="none" xmlns="http://www.w3.org/2000/svg"><path d="m40.467 2.506-.091-.001-.265-.005h-.112A25 25 0 0 0 15 27.5c0 12.773 2.239 23.722 6.654 32.545 4.267 8.526 9.483 12.796 12.213 14.582a11.193 11.193 0 0 0 12.252.01c2.72-1.778 7.92-6.027 12.185-14.512C62.716 51.349 64.97 40.46 65 27.762c.033-13.75-10.94-25.004-24.533-25.256ZM58.75 15.172V20c0 3.569-.771 7.096-2.263 10.338a6.285 6.285 0 0 0-1.379-1.504 17.49 17.49 0 0 0-.38-18.278 22.845 22.845 0 0 1 4.022 4.616ZM40 45.838l-7.927-5.39c-.395-.268-.78-.547-1.155-.836a6.285 6.285 0 0 0 3.412-3.051 17.585 17.585 0 0 0 11.34 0 6.285 6.285 0 0 0 3.412 3.05c-.376.29-.761.568-1.155.837L40 45.838ZM25 20A15.017 15.017 0 0 1 40 5c.111 0 .222.002.333.004l.065.001c.192.005.383.015.573.027A1.25 1.25 0 0 0 41.25 7.5a1.252 1.252 0 0 1 1.25 1.25V10a1.252 1.252 0 0 1-1.25 1.25h-3.125a.624.624 0 1 1 0-1.25h.625a1.25 1.25 0 0 0 0-2.5h-.625a3.125 3.125 0 1 0 0 6.25h3.125A3.754 3.754 0 0 0 45 10V8.75a3.755 3.755 0 0 0-2.533-3.546 14.999 14.999 0 0 1 10.397 22.509 6.248 6.248 0 0 0-7.85 6.428 15.06 15.06 0 0 1-10.028 0 6.247 6.247 0 0 0-7.85-6.428A14.906 14.906 0 0 1 25 20Zm3.75 10a3.75 3.75 0 0 1 0 7.5c-.085 0-.17-.005-.254-.01a24.694 24.694 0 0 1-3.451-4.327A3.753 3.753 0 0 1 28.75 30Zm22.754 7.49a3.75 3.75 0 1 1 3.452-4.326 24.694 24.694 0 0 1-3.452 4.325Zm-27.38-25.935a22.82 22.82 0 0 1 1.253-1.157 17.485 17.485 0 0 0-.485 18.436 6.285 6.285 0 0 0-1.379 1.504A24.715 24.715 0 0 1 21.25 20v-4.95a22.727 22.727 0 0 1 2.875-3.495Zm20.627 60.988a8.694 8.694 0 0 1-9.515-.008c-2.519-1.648-7.343-5.608-11.347-13.609C19.65 50.454 17.5 39.881 17.5 27.5c-.003-2.53.42-5.041 1.251-7.43a27.204 27.204 0 0 0 11.916 22.445l8.51 5.787a24.705 24.705 0 0 1 10.811 19.69 27.726 27.726 0 0 1-5.237 4.551Zm11.32-13.541a42.222 42.222 0 0 1-3.803 6.214 27.194 27.194 0 0 0-10.11-17.822l7.175-4.879a27.203 27.203 0 0 0 11.913-22.28 22.764 22.764 0 0 1 1.254 7.52c-.03 12.308-2.193 22.82-6.43 31.247Z" /><path d="M31.25 17.715a2.271 2.271 0 0 1 1.616.669 1.25 1.25 0 0 0 1.768-1.768 4.785 4.785 0 0 0-6.768 0 1.249 1.249 0 1 0 1.768 1.768 2.269 2.269 0 0 1 1.616-.67ZM47.133 18.384a2.285 2.285 0 0 1 3.233 0 1.25 1.25 0 0 0 1.768-1.768 4.785 4.785 0 0 0-6.768 0 1.249 1.249 0 1 0 1.767 1.768ZM38.75 21.25a1.248 1.248 0 0 0 .884-.366.517.517 0 0 1 .732 0 1.248 1.248 0 0 0 2.038-.406 1.25 1.25 0 0 0-.27-1.362 3.019 3.019 0 0 0-4.268 0 1.25 1.25 0 0 0 .884 2.134ZM35.855 26.186a13.19 13.19 0 0 0 8.29 0 1.25 1.25 0 0 0-.79-2.372 10.674 10.674 0 0 1-6.71 0 1.249 1.249 0 1 0-.79 2.372Z" /></svg>
