<svg width="80" height="80" viewBox="0 0 80 80" fill="none" xmlns="http://www.w3.org/2000/svg">
<path d="M38.1788 17.3499V12.9729L28.0143 2.85715H1.42969V41.1574" stroke="#0098D0" stroke-width="2" stroke-miterlimit="10" stroke-linecap="round" stroke-linejoin="round"/>
<path d="M29.7233 21.8812H9.88213C9.227 21.8812 8.69531 21.3495 8.69531 20.6944C8.69531 20.0392 9.227 19.5075 9.88213 19.5075H29.7233C30.3784 19.5075 30.9101 20.0392 30.9101 20.6944C30.9101 21.3495 30.3784 21.8812 29.7233 21.8812Z" fill="#0098D0"/>
<path d="M29.5274 27.3061H9.68681C9.03169 27.3061 8.5 26.7744 8.5 26.1192C8.5 25.4641 9.03169 24.9324 9.68681 24.9324H29.5274C30.1825 24.9324 30.7142 25.4641 30.7142 26.1192C30.7142 26.7744 30.1831 27.3061 29.5274 27.3061Z" fill="#0098D0"/>
<path d="M29.8215 16.4568H9.97978C9.32466 16.4568 8.79297 15.9251 8.79297 15.27C8.79297 14.6149 9.32466 14.0832 9.97978 14.0832H29.8215C30.4766 14.0832 31.0083 14.6149 31.0083 15.27C31.0083 15.9251 30.4766 16.4568 29.8215 16.4568Z" fill="#0098D0"/>
<path d="M62.0339 31.4403C62.4618 33.9861 62.8534 36.9032 62.835 38.979C62.7241 41.3651 62.152 43.2005 60.6602 45.0353C59.6704 46.253 59.2544 47.8391 59.436 49.3974L59.5203 50.1184C59.585 50.672 59.8882 51.1693 60.3499 51.4809C60.5142 51.5918 60.6946 51.6761 60.8851 51.7313L69.6527 54.277C70.7576 54.5197 71.9118 55.1238 73.0517 56.0614C74.8367 57.536 76.0674 59.5969 76.5202 61.8602L78.5716 77.4139" stroke="#0098D0" stroke-width="2" stroke-miterlimit="10" stroke-linecap="round" stroke-linejoin="round"/>
<path d="M52.2773 14.1467C57.3973 14.1467 62.7617 16.995 64.9056 21.7856C65.8492 23.8946 66.2331 26.2071 66.5001 28.5018C66.8763 31.737 67.0419 34.8157 68.5919 37.7346C69.7229 39.8638 71.4551 41.3615 74.199 41.6915C74.199 41.6915 70.848 47.4374 63.5562 46.1865" stroke="#0098D0" stroke-width="2" stroke-miterlimit="10" stroke-linecap="round" stroke-linejoin="round"/>
<path d="M52.2771 14.1467C47.1572 14.1467 41.7928 16.995 39.6488 21.7856C38.7053 23.8946 38.3214 26.2071 38.0543 28.5018C37.6781 31.737 37.5126 34.8157 35.9626 37.7346C34.8316 39.8638 33.0994 41.3615 30.3555 41.6915C30.3555 41.6915 33.7064 47.4374 40.9982 46.1865" stroke="#0098D0" stroke-width="2" stroke-miterlimit="10" stroke-linecap="round" stroke-linejoin="round"/>
<path d="M44.2031 51.4803L52.277 57.5087L60.3509 51.4803" stroke="#0098D0" stroke-width="2" stroke-miterlimit="10" stroke-linecap="round" stroke-linejoin="round"/>
<path d="M61.082 71.4354H68.5696" stroke="#0098D0" stroke-width="2" stroke-miterlimit="10" stroke-linecap="round" stroke-linejoin="round"/>
<path d="M25.9805 77.4133L28.0313 61.8595C28.4846 59.5963 29.7142 57.5354 31.4997 56.0608C32.6397 55.1232 33.7938 54.5191 34.8994 54.2764L43.6669 51.7307C43.8574 51.6755 44.0378 51.5912 44.2016 51.4803C44.6639 51.1693 44.9671 50.6714 45.0312 50.1178L45.1154 49.3968C45.297 47.8385 44.8811 46.2524 43.8912 45.0347C42.4 43.1999 41.8274 41.3639 41.7164 38.9784C41.6951 36.5181 42.2481 32.8788 42.7567 30.0737C43.2183 27.5268 44.9149 25.3775 47.2832 24.3337C49.1957 23.4905 51.4625 23.9824 52.7864 25.5994C52.7959 25.6113 52.8054 25.622 52.8143 25.6338C53.743 26.7815 54.4319 28.1197 55.4591 29.1801C57.129 30.9039 59.6688 31.7388 62.0359 31.3424" stroke="#0098D0" stroke-width="2" stroke-miterlimit="10" stroke-linecap="round" stroke-linejoin="round"/>
<path d="M50.5586 19.7591C52.5489 19.7781 54.5077 20.7596 55.7147 22.3428C56.6648 23.5878 57.165 25.1657 58.2925 26.2528C59.4318 27.3524 61.1628 27.7974 62.6914 27.3844" stroke="#0098D0" stroke-width="2" stroke-miterlimit="10" stroke-linecap="round" stroke-linejoin="round"/>
<path d="M15.6637 60.4816C21.9479 60.4816 27.0423 55.3873 27.0423 49.1031C27.0423 42.8189 21.9479 37.7245 15.6637 37.7245C9.37951 37.7245 4.28516 42.8189 4.28516 49.1031C4.28516 55.3873 9.37951 60.4816 15.6637 60.4816Z" stroke="#0098D0" stroke-width="2" stroke-miterlimit="10" stroke-linecap="round" stroke-linejoin="round"/>
<path d="M10.7852 49.697L14.6737 53.1649L20.9686 45.4666" stroke="#0098D0" stroke-width="2" stroke-miterlimit="10" stroke-linecap="round" stroke-linejoin="round"/>
</svg>
