<svg width="80" height="80" viewBox="0 0 80 80" fill="none" xmlns="http://www.w3.org/2000/svg">
<g clip-path="url(#clip0_526_8497)">
<path d="M41.8999 64.5826H5.58597C3.29015 64.5826 1.42969 62.7274 1.42969 60.4387V7.00168C1.42969 4.7124 3.29015 2.85715 5.58597 2.85715H72.9877C75.2829 2.85715 77.1434 4.7124 77.1434 7.00168V53.769" stroke="#0098D0" stroke-width="2" stroke-miterlimit="10" stroke-linecap="round" stroke-linejoin="round"/>
<path d="M10.8959 11.7305C11.2893 11.7305 11.6081 11.4107 11.6081 11.0162C11.6081 10.6217 11.2893 10.3019 10.8959 10.3019C10.5025 10.3019 10.1836 10.6217 10.1836 11.0162C10.1836 11.4107 10.5025 11.7305 10.8959 11.7305Z" stroke="#0098D0" stroke-width="2" stroke-miterlimit="10" stroke-linecap="round" stroke-linejoin="round"/>
<path d="M19.0131 11.7305C19.4065 11.7305 19.7254 11.4107 19.7254 11.0162C19.7254 10.6217 19.4065 10.3019 19.0131 10.3019C18.6197 10.3019 18.3008 10.6217 18.3008 11.0162C18.3008 11.4107 18.6197 11.7305 19.0131 11.7305Z" stroke="#0098D0" stroke-width="2" stroke-miterlimit="10" stroke-linecap="round" stroke-linejoin="round"/>
<path d="M27.1342 11.7305C27.5275 11.7305 27.8464 11.4107 27.8464 11.0162C27.8464 10.6217 27.5275 10.3019 27.1342 10.3019C26.7408 10.3019 26.4219 10.6217 26.4219 11.0162C26.4219 11.4107 26.7408 11.7305 27.1342 11.7305Z" stroke="#0098D0" stroke-width="2" stroke-miterlimit="10" stroke-linecap="round" stroke-linejoin="round"/>
<path d="M1.42969 19.3295H77.144" stroke="#0098D0" stroke-width="2" stroke-miterlimit="10" stroke-linecap="round" stroke-linejoin="round"/>
<path d="M39.6758 11.0933H69.6758" stroke="#0098D0" stroke-width="2" stroke-miterlimit="10" stroke-linecap="round" stroke-linejoin="round"/>
<path d="M57.2108 48.8566V36.0689C57.2108 34.7721 56.1566 33.7202 54.8554 33.7202C53.5543 33.7202 52.5 34.7721 52.5 36.0689V52.7039" stroke="#0098D0" stroke-width="2" stroke-miterlimit="10" stroke-linecap="round" stroke-linejoin="round"/>
<path d="M61.9218 48.8566V45.2164C61.9218 43.9196 60.8675 42.8677 59.5664 42.8677" stroke="#0098D0" stroke-width="2" stroke-miterlimit="10" stroke-linecap="round" stroke-linejoin="round"/>
<path d="M66.6328 48.8566V46.7714C66.6328 45.4746 65.5785 44.4233 64.2773 44.4233" stroke="#0098D0" stroke-width="2" stroke-miterlimit="10" stroke-linecap="round" stroke-linejoin="round"/>
<path d="M67.5197 72.001C67.4263 67.6752 67.778 66.8509 67.778 66.8509C67.778 66.8509 67.9899 65.7726 68.4319 64.4025C69.8004 60.1637 70.5398 55.749 70.656 51.3008L70.6723 49.3171C70.6723 48.0197 69.618 46.9684 68.3169 46.9684" stroke="#0098D0" stroke-width="2" stroke-miterlimit="10" stroke-linecap="round" stroke-linejoin="round"/>
<path d="M50.3838 46.6658C49.863 46.063 49.0959 45.6986 48.2674 45.6986C46.8754 45.6986 46.139 46.4874 45.9042 47.2643C45.8831 47.334 45.8638 47.4066 45.8464 47.4805C45.6609 48.2676 45.7633 49.092 46.074 49.8389C46.6285 51.1711 47.4865 53.8855 47.0109 57.4812C46.7357 59.5622 47.2277 61.6731 48.4216 63.4016C49.1797 64.498 50.0876 65.7419 51.0347 66.8869C51.0347 66.8869 53.3726 69.1894 53.3726 72.0016" stroke="#0098D0" stroke-width="2" stroke-miterlimit="10" stroke-linecap="round" stroke-linejoin="round"/>
<path d="M68.3176 46.9678H66.6328" stroke="#0098D0" stroke-width="2" stroke-miterlimit="10" stroke-linecap="round" stroke-linejoin="round"/>
<path d="M64.277 44.4233H61.7812" stroke="#0098D0" stroke-width="2" stroke-miterlimit="10" stroke-linecap="round" stroke-linejoin="round"/>
<path d="M59.5664 42.8671H57.2109" stroke="#0098D0" stroke-width="2" stroke-miterlimit="10" stroke-linecap="round" stroke-linejoin="round"/>
<path d="M50.7148 80V73.3321C50.7148 72.5966 51.3121 72.001 52.0491 72.001H68.8519C69.5889 72.001 70.1862 72.5966 70.1862 73.3321V80" stroke="#0098D0" stroke-width="2" stroke-miterlimit="10" stroke-linecap="round" stroke-linejoin="round"/>
<path d="M10.2852 34.9053V28.6343H32.4244V34.9053" stroke="#0098D0" stroke-width="2" stroke-miterlimit="10" stroke-linecap="round" stroke-linejoin="round"/>
<path d="M11 46.1429V41H31.8571V46.1429H11Z" stroke="#0098D0" stroke-width="2"/>
<path d="M11 56.1429V51H31.8571V56.1429H11Z" stroke="#0098D0" stroke-width="2"/>
</g>
<defs>
<clipPath id="clip0_526_8497">
<rect width="80" height="80" fill="white"/>
</clipPath>
</defs>
</svg>
